<svg width="49" height="48" viewBox="0 0 49 48" fill="none" xmlns="http://www.w3.org/2000/svg">
<g clip-path="url(#clip0_8848_6603)">
<g clip-path="url(#clip1_8848_6603)">
<mask id="mask0_8848_6603" style="mask-type:luminance" maskUnits="userSpaceOnUse" x="0" y="0" width="49" height="48">
<path d="M0.5 0H48.5V48H0.5V0Z" fill="white"/>
</mask>
<g mask="url(#mask0_8848_6603)">
<path fill-rule="evenodd" clip-rule="evenodd" d="M24.4967 0.000555359C24.5852 -0.00363572 24.6731 0.0159547 24.7513 0.0572861C24.8296 0.0986174 24.8954 0.160178 24.9417 0.235555L39.6988 24.0746C39.7337 24.131 39.7569 24.194 39.767 24.2596C39.7771 24.3253 39.7739 24.3923 39.7576 24.4567C39.7413 24.5211 39.7122 24.5815 39.672 24.6344C39.6318 24.6873 39.5814 24.7316 39.5237 24.7646L24.7657 33.2106C24.6837 33.2572 24.59 33.2795 24.4957 33.2746C24.4015 33.2794 24.3078 33.2572 24.2257 33.2106L9.46975 24.7646C9.41211 24.7316 9.3617 24.6873 9.32152 24.6344C9.28134 24.5815 9.25222 24.5211 9.23589 24.4567C9.21957 24.3923 9.21636 24.3253 9.22647 24.2596C9.23658 24.194 9.2598 24.131 9.29475 24.0746L24.0507 0.234555C24.0975 0.159395 24.1635 0.098135 24.2419 0.0571558C24.3204 0.0161766 24.4084 -0.00302336 24.4967 0.00155536V0.000555359ZM39.4768 26.8456C39.5531 26.9294 39.5983 27.037 39.6049 27.1502C39.6114 27.2634 39.5789 27.3754 39.5128 27.4676L24.9227 47.7946C24.8745 47.8615 24.8102 47.9154 24.7358 47.9512C24.6614 47.987 24.5792 48.0036 24.4967 47.9996C24.4141 48.0038 24.3317 47.9873 24.2571 47.9514C24.1825 47.9156 24.1181 47.8617 24.0697 47.7946L9.47975 27.4676C9.4136 27.3754 9.38108 27.2634 9.38765 27.1502C9.39422 27.0369 9.43947 26.9294 9.51583 26.8455C9.59219 26.7617 9.69503 26.7066 9.80715 26.6895C9.91926 26.6724 10.0339 26.6943 10.1317 26.7516L24.4967 35.1516L38.8608 26.7516C38.9587 26.6943 39.0733 26.6724 39.1854 26.6895C39.2975 26.7066 39.4004 26.7617 39.4768 26.8456Z" fill="#1616B4"/>
<path d="M23.9776 45.9662L11.6426 28.7812L23.9776 35.9952V45.9662Z" fill="#F0CDC2"/>
<path d="M25.0156 45.9672V35.9962L37.3496 28.7812L25.0156 45.9672Z" fill="#C9B3F5"/>
<path d="M23.9766 31.9262L10.8066 24.3892L23.9766 18.4922V31.9262Z" fill="#88AAF1"/>
<path d="M25.0156 31.9262V18.4922L38.1856 24.3892L25.0156 31.9262Z" fill="#C9B3F5"/>
<path d="M23.9764 17.4083L10.9844 23.2253L23.9764 2.23828V17.4083Z" fill="#F0CDC2"/>
<path d="M25.0156 17.4083V2.23828L38.0076 23.2253L25.0156 17.4083Z" fill="#B8FAF6"/>
</g>
</g>
</g>
<defs>
<clipPath id="clip0_8848_6603">
<rect width="48" height="48" fill="white" transform="translate(0.5)"/>
</clipPath>
<clipPath id="clip1_8848_6603">
<rect width="48" height="48" fill="white" transform="translate(0.5)"/>
</clipPath>
</defs>
</svg>
